<svg data-v-423bf9ae="" xmlns="http://www.w3.org/2000/svg" viewBox="0 0 438 91" class="iconLeft"><!----><!----><!----><g data-v-423bf9ae="" id="de6a62da-a467-4fae-8ddb-3bd01fda3a99" fill="white" transform="matrix(5.097705841064453,0,0,5.097705841064453,87.7409439086914,-0.7009336352348328)"><path d="M0.67 7.91L0.67 7.91L0.67 7.91Q0.63 7.64 0.54 7.49L0.54 7.49L0.54 7.49Q0.44 7.33 0.23 7.33L0.23 7.33L0.23 7.33Q0.11 7.33 0.02 7.38L0.02 7.38L0.02 7.38Q-0.06 7.42-0.16 7.49L-0.16 7.49L-0.29 7.32L-0.29 7.32Q-0.14 7.19 0.06 7.06L0.06 7.06L0.06 7.06Q0.25 6.94 0.48 6.84L0.48 6.84L0.48 6.84Q0.70 6.75 0.96 6.69L0.96 6.69L0.96 6.69Q1.22 6.62 1.51 6.62L1.51 6.62L1.51 6.62Q1.92 6.62 2.17 6.76L2.17 6.76L2.17 6.76Q2.43 6.90 2.57 7.11L2.57 7.11L2.57 7.11Q2.72 7.32 2.78 7.56L2.78 7.56L2.78 7.56Q2.84 7.80 2.87 7.99L2.87 7.99L2.87 7.99Q3.12 10.06 3.44 11.13L3.44 11.13L3.44 11.13Q3.75 12.20 4.18 12.20L4.18 12.20L4.18 12.20Q4.42 12.20 4.65 11.94L4.65 11.94L4.65 11.94Q4.87 11.68 5.03 11.22L5.03 11.22L5.03 11.22Q5.20 10.77 5.30 10.17L5.30 10.17L5.30 10.17Q5.41 9.57 5.41 8.89L5.41 8.89L5.41 8.89Q5.41 8.44 5.35 8.12L5.35 8.12L5.35 8.12Q5.28 7.81 5.21 7.60L5.21 7.60L5.21 7.60Q5.13 7.39 5.07 7.25L5.07 7.25L5.07 7.25Q5.01 7.11 5.01 7L5.01 7L5.01 7Q5.01 6.90 5.09 6.83L5.09 6.83L5.09 6.83Q5.17 6.76 5.29 6.71L5.29 6.71L5.29 6.71Q5.40 6.67 5.52 6.64L5.52 6.64L5.52 6.64Q5.64 6.62 5.71 6.62L5.71 6.62L5.71 6.62Q5.91 6.62 6.00 6.68L6.00 6.68L6.00 6.68Q6.09 6.73 6.15 6.89L6.15 6.89L6.15 6.89Q6.21 7.09 6.23 7.41L6.23 7.41L6.23 7.41Q6.25 7.74 6.25 8.11L6.25 8.11L6.25 8.11Q6.25 8.63 6.18 9.26L6.18 9.26L6.18 9.26Q6.11 9.89 5.96 10.53L5.96 10.53L5.96 10.53Q5.82 11.16 5.59 11.76L5.59 11.76L5.59 11.76Q5.37 12.35 5.06 12.81L5.06 12.81L5.06 12.81Q4.74 13.28 4.35 13.55L4.35 13.55L4.35 13.55Q3.96 13.83 3.47 13.83L3.47 13.83L3.47 13.83Q2.91 13.83 2.49 13.50L2.49 13.50L2.49 13.50Q2.07 13.17 1.78 12.65L1.78 12.65L1.78 12.65Q1.49 12.12 1.30 11.46L1.30 11.46L1.30 11.46Q1.11 10.81 0.99 10.15L0.99 10.15L0.99 10.15Q0.87 9.49 0.80 8.90L0.80 8.90L0.80 8.90Q0.72 8.31 0.67 7.91ZM9.71 7.76L9.71 13.10L9.71 13.10Q9.71 13.19 9.68 13.32L9.68 13.32L9.68 13.32Q9.65 13.45 9.54 13.56L9.54 13.56L9.54 13.56Q9.43 13.67 9.21 13.75L9.21 13.75L9.21 13.75Q9.00 13.83 8.64 13.83L8.64 13.83L8.64 13.83Q8.28 13.83 8.07 13.74L8.07 13.74L8.07 13.74Q7.87 13.66 7.77 13.54L7.77 13.54L7.77 13.54Q7.66 13.43 7.64 13.30L7.64 13.30L7.64 13.30Q7.62 13.18 7.62 13.10L7.62 13.10L7.62 7.83L7.62 7.83Q7.62 7.63 7.52 7.48L7.52 7.48L7.52 7.48Q7.43 7.33 7.21 7.33L7.21 7.33L7.21 7.33Q7.10 7.33 7.01 7.38L7.01 7.38L7.01 7.38Q6.93 7.42 6.84 7.49L6.84 7.49L6.69 7.32L6.69 7.32Q6.85 7.19 7.04 7.06L7.04 7.06L7.04 7.06Q7.24 6.94 7.46 6.84L7.46 6.84L7.46 6.84Q7.69 6.75 7.95 6.69L7.95 6.69L7.95 6.69Q8.21 6.62 8.50 6.62L8.50 6.62L8.50 6.62Q8.94 6.62 9.19 6.74L9.19 6.74L9.19 6.74Q9.43 6.86 9.55 7.04L9.55 7.04L9.55 7.04Q9.67 7.21 9.69 7.41L9.69 7.41L9.69 7.41Q9.71 7.61 9.71 7.76L9.71 7.76ZM7.40 5.07L7.40 5.07L7.40 5.07Q7.40 4.87 7.49 4.70L7.49 4.70L7.49 4.70Q7.57 4.53 7.73 4.40L7.73 4.40L7.73 4.40Q7.88 4.27 8.08 4.19L8.08 4.19L8.08 4.19Q8.29 4.12 8.52 4.12L8.52 4.12L8.52 4.12Q8.76 4.12 8.96 4.19L8.96 4.19L8.96 4.19Q9.16 4.27 9.31 4.40L9.31 4.40L9.31 4.40Q9.46 4.53 9.55 4.70L9.55 4.70L9.55 4.70Q9.63 4.87 9.63 5.07L9.63 5.07L9.63 5.07Q9.63 5.26 9.55 5.43L9.55 5.43L9.55 5.43Q9.46 5.61 9.31 5.73L9.31 5.73L9.31 5.73Q9.16 5.86 8.96 5.93L8.96 5.93L8.96 5.93Q8.76 6.01 8.52 6.01L8.52 6.01L8.52 6.01Q8.29 6.01 8.08 5.93L8.08 5.93L8.08 5.93Q7.88 5.86 7.73 5.73L7.73 5.73L7.73 5.73Q7.57 5.61 7.49 5.43L7.49 5.43L7.49 5.43Q7.40 5.26 7.40 5.07ZM15.23 10.01L15.23 10.01L15.23 10.01Q15.23 9.93 15.23 9.70L15.23 9.70L15.23 9.70Q15.23 9.47 15.22 9.18L15.22 9.18L15.22 9.18Q15.20 8.88 15.17 8.54L15.17 8.54L15.17 8.54Q15.13 8.21 15.06 7.92L15.06 7.92L15.06 7.92Q14.90 7.71 14.69 7.54L14.69 7.54L14.69 7.54Q14.49 7.38 14.18 7.38L14.18 7.38L14.18 7.38Q13.64 7.38 13.40 8.07L13.40 8.07L13.40 8.07Q13.15 8.77 13.15 10.23L13.15 10.23L13.15 10.23Q13.15 10.88 13.20 11.41L13.20 11.41L13.20 11.41Q13.26 11.94 13.38 12.33L13.38 12.33L13.38 12.33Q13.50 12.71 13.69 12.92L13.69 12.92L13.69 12.92Q13.88 13.13 14.14 13.13L14.14 13.13L14.14 13.13Q15.23 13.13 15.23 10.01ZM15.15 7L15.15 7L15.15 7Q15.02 6.32 14.79 5.73L14.79 5.73L14.79 5.73Q14.55 5.13 14.23 4.70L14.23 4.70L14.23 4.70Q13.90 4.27 13.49 4.03L13.49 4.03L13.49 4.03Q13.08 3.78 12.60 3.78L12.60 3.78L12.60 3.78Q12.33 3.78 12.10 3.85L12.10 3.85L12.10 3.85Q11.88 3.92 11.72 4.01L11.72 4.01L11.72 4.01Q11.55 4.10 11.45 4.19L11.45 4.19L11.45 4.19Q11.34 4.27 11.29 4.31L11.29 4.31L11.12 4.07L11.12 4.07Q11.28 3.86 11.52 3.68L11.52 3.68L11.52 3.68Q11.75 3.49 12.03 3.36L12.03 3.36L12.03 3.36Q12.31 3.23 12.62 3.16L12.62 3.16L12.62 3.16Q12.93 3.08 13.24 3.08L13.24 3.08L13.24 3.08Q14.25 3.08 15.02 3.52L15.02 3.52L15.02 3.52Q15.78 3.96 16.30 4.77L16.30 4.77L16.30 4.77Q16.81 5.58 17.07 6.72L17.07 6.72L17.07 6.72Q17.33 7.86 17.33 9.26L17.33 9.26L17.33 9.26Q17.33 10.38 17.10 11.24L17.10 11.24L17.10 11.24Q16.87 12.09 16.45 12.67L16.45 12.67L16.45 12.67Q16.02 13.25 15.42 13.54L15.42 13.54L15.42 13.54Q14.81 13.83 14.05 13.83L14.05 13.83L14.05 13.83Q13.53 13.83 12.98 13.64L12.98 13.64L12.98 13.64Q12.44 13.45 12.00 13.03L12.00 13.03L12.00 13.03Q11.56 12.61 11.28 11.92L11.28 11.92L11.28 11.92Q11.00 11.23 11.00 10.23L11.00 10.23L11.00 10.23Q11.00 9.37 11.24 8.70L11.24 8.70L11.24 8.70Q11.48 8.03 11.89 7.57L11.89 7.57L11.89 7.57Q12.30 7.11 12.84 6.87L12.84 6.87L12.84 6.87Q13.38 6.62 13.99 6.62L13.99 6.62L13.99 6.62Q14.22 6.62 14.40 6.66L14.40 6.66L14.40 6.66Q14.59 6.70 14.72 6.75L14.72 6.75L14.72 6.75Q14.86 6.81 14.96 6.87L14.96 6.87L14.96 6.87Q15.07 6.94 15.15 7ZM27.62 8.54L27.62 13.12L27.62 13.12Q27.62 13.21 27.60 13.33L27.60 13.33L27.60 13.33Q27.57 13.45 27.46 13.56L27.46 13.56L27.46 13.56Q27.36 13.67 27.15 13.75L27.15 13.75L27.15 13.75Q26.93 13.83 26.57 13.83L26.57 13.83L26.57 13.83Q26.21 13.83 26.00 13.74L26.00 13.74L26.00 13.74Q25.79 13.66 25.69 13.54L25.69 13.54L25.69 13.54Q25.58 13.43 25.55 13.30L25.55 13.30L25.55 13.30Q25.53 13.18 25.53 13.10L25.53 13.10L25.53 8.27L25.53 8.27Q25.53 8.18 25.50 8.08L25.50 8.08L25.50 8.08Q25.47 7.98 25.42 7.90L25.42 7.90L25.42 7.90Q25.36 7.81 25.28 7.76L25.28 7.76L25.28 7.76Q25.20 7.71 25.09 7.71L25.09 7.71L25.09 7.71Q24.90 7.71 24.73 7.82L24.73 7.82L24.73 7.82Q24.55 7.92 24.39 8.06L24.39 8.06L24.39 8.06Q24.24 8.20 24.13 8.33L24.13 8.33L24.13 8.33Q24.01 8.47 23.97 8.54L23.97 8.54L23.97 13.12L23.97 13.12Q23.97 13.21 23.94 13.33L23.94 13.33L23.94 13.33Q23.91 13.45 23.81 13.56L23.81 13.56L23.81 13.56Q23.70 13.67 23.49 13.75L23.49 13.75L23.49 13.75Q23.28 13.83 22.92 13.83L22.92 13.83L22.92 13.83Q22.56 13.83 22.35 13.74L22.35 13.74L22.35 13.74Q22.14 13.66 22.03 13.54L22.03 13.54L22.03 13.54Q21.92 13.43 21.90 13.30L21.90 13.30L21.90 13.30Q21.87 13.18 21.87 13.10L21.87 13.10L21.87 7.83L21.87 7.83Q21.87 7.63 21.78 7.48L21.78 7.48L21.78 7.48Q21.68 7.33 21.46 7.33L21.46 7.33L21.46 7.33Q21.35 7.33 21.27 7.38L21.27 7.38L21.27 7.38Q21.18 7.42 21.09 7.49L21.09 7.49L20.95 7.32L20.95 7.32Q21.10 7.19 21.30 7.06L21.30 7.06L21.30 7.06Q21.49 6.94 21.72 6.84L21.72 6.84L21.72 6.84Q21.94 6.75 22.20 6.69L22.20 6.69L22.20 6.69Q22.46 6.62 22.75 6.62L22.75 6.62L22.75 6.62Q23.19 6.62 23.44 6.77L23.44 6.77L23.44 6.77Q23.69 6.92 23.80 7.12L23.80 7.12L23.80 7.12Q23.92 7.33 23.94 7.55L23.94 7.55L23.94 7.55Q23.97 7.77 23.97 7.92L23.97 7.92L23.97 7.92Q24.29 7.56 24.66 7.27L24.66 7.27L24.66 7.27Q24.81 7.15 24.99 7.03L24.99 7.03L24.99 7.03Q25.17 6.92 25.36 6.83L25.36 6.83L25.36 6.83Q25.55 6.73 25.76 6.68L25.76 6.68L25.76 6.68Q25.96 6.62 26.17 6.62L26.17 6.62L26.17 6.62Q26.56 6.62 26.84 6.77L26.84 6.77L26.84 6.77Q27.13 6.91 27.30 7.11L27.30 7.11L27.30 7.11Q27.47 7.31 27.55 7.54L27.55 7.54L27.55 7.54Q27.62 7.76 27.62 7.92L27.62 7.92L27.62 7.92Q27.95 7.56 28.31 7.27L28.31 7.27L28.31 7.27Q28.46 7.15 28.64 7.03L28.64 7.03L28.64 7.03Q28.82 6.92 29.02 6.83L29.02 6.83L29.02 6.83Q29.21 6.73 29.41 6.68L29.41 6.68L29.41 6.68Q29.61 6.62 29.82 6.62L29.82 6.62L29.82 6.62Q30.21 6.62 30.50 6.77L30.50 6.77L30.50 6.77Q30.78 6.92 30.95 7.16L30.95 7.16L30.95 7.16Q31.12 7.40 31.20 7.70L31.20 7.70L31.20 7.70Q31.27 8.00 31.27 8.30L31.27 8.30L31.27 12.53L31.27 12.53Q31.27 12.59 31.28 12.66L31.28 12.66L31.28 12.66Q31.29 12.74 31.32 12.80L31.32 12.80L31.32 12.80Q31.34 12.87 31.40 12.91L31.40 12.91L31.40 12.91Q31.46 12.95 31.55 12.95L31.55 12.95L31.55 12.95Q31.68 12.95 31.79 12.85L31.79 12.85L31.79 12.85Q31.89 12.76 31.98 12.67L31.98 12.67L32.14 12.81L32.14 12.81Q32.05 12.95 31.89 13.13L31.89 13.13L31.89 13.13Q31.73 13.30 31.52 13.46L31.52 13.46L31.52 13.46Q31.30 13.62 31.02 13.72L31.02 13.72L31.02 13.72Q30.73 13.83 30.38 13.83L30.38 13.83L30.38 13.83Q30.08 13.83 29.86 13.75L29.86 13.75L29.86 13.75Q29.63 13.67 29.48 13.54L29.48 13.54L29.48 13.54Q29.33 13.41 29.25 13.22L29.25 13.22L29.25 13.22Q29.18 13.04 29.18 12.84L29.18 12.84L29.18 8.27L29.18 8.27Q29.18 8.18 29.15 8.08L29.15 8.08L29.15 8.08Q29.12 7.98 29.07 7.90L29.07 7.90L29.07 7.90Q29.02 7.81 28.94 7.76L28.94 7.76L28.94 7.76Q28.85 7.71 28.75 7.71L28.75 7.71L28.75 7.71Q28.56 7.71 28.38 7.82L28.38 7.82L28.38 7.82Q28.20 7.92 28.04 8.06L28.04 8.06L28.04 8.06Q27.89 8.20 27.78 8.33L27.78 8.33L27.78 8.33Q27.67 8.47 27.62 8.54L27.62 8.54ZM32.63 10.22L32.63 10.22L32.63 10.22Q32.63 9.32 32.89 8.65L32.89 8.65L32.89 8.65Q33.15 7.98 33.59 7.53L33.59 7.53L33.59 7.53Q34.02 7.08 34.60 6.85L34.60 6.85L34.60 6.85Q35.17 6.62 35.80 6.62L35.80 6.62L35.80 6.62Q36.43 6.62 37.00 6.83L37.00 6.83L37.00 6.83Q37.58 7.04 38.01 7.47L38.01 7.47L38.01 7.47Q38.45 7.90 38.71 8.56L38.71 8.56L38.71 8.56Q38.96 9.22 38.96 10.12L38.96 10.12L38.96 10.12Q38.96 11.02 38.71 11.71L38.71 11.71L38.71 11.71Q38.45 12.40 38.01 12.87L38.01 12.87L38.01 12.87Q37.58 13.34 37.00 13.59L37.00 13.59L37.00 13.59Q36.43 13.83 35.80 13.83L35.80 13.83L35.80 13.83Q35.17 13.83 34.60 13.60L34.60 13.60L34.60 13.60Q34.02 13.37 33.59 12.92L33.59 12.92L33.59 12.92Q33.15 12.47 32.89 11.79L32.89 11.79L32.89 11.79Q32.63 11.12 32.63 10.22ZM36.84 10.15L36.84 10.15L36.84 10.15Q36.84 9.60 36.80 9.10L36.80 9.10L36.80 9.10Q36.76 8.59 36.65 8.19L36.65 8.19L36.65 8.19Q36.54 7.79 36.34 7.56L36.34 7.56L36.34 7.56Q36.13 7.32 35.80 7.32L35.80 7.32L35.80 7.32Q35.46 7.32 35.26 7.57L35.26 7.57L35.26 7.57Q35.05 7.82 34.95 8.23L34.95 8.23L34.95 8.23Q34.84 8.63 34.80 9.15L34.80 9.15L34.80 9.15Q34.77 9.67 34.77 10.22L34.77 10.22L34.77 10.22Q34.77 10.77 34.80 11.29L34.80 11.29L34.80 11.29Q34.84 11.81 34.95 12.22L34.95 12.22L34.95 12.22Q35.05 12.63 35.26 12.88L35.26 12.88L35.26 12.88Q35.46 13.13 35.80 13.13L35.80 13.13L35.80 13.13Q36.13 13.13 36.34 12.87L36.34 12.87L36.34 12.87Q36.54 12.61 36.65 12.19L36.65 12.19L36.65 12.19Q36.76 11.76 36.80 11.23L36.80 11.23L36.80 11.23Q36.84 10.70 36.84 10.15ZM44.26 10.32L44.26 10.32L44.26 10.32Q44.26 9.45 44.18 8.94L44.18 8.94L44.18 8.94Q44.11 8.42 43.98 8.15L43.98 8.15L43.98 8.15Q43.85 7.88 43.69 7.80L43.69 7.80L43.69 7.80Q43.53 7.71 43.37 7.71L43.37 7.71L43.37 7.71Q43.17 7.71 43.02 7.82L43.02 7.82L43.02 7.82Q42.86 7.92 42.75 8.06L42.75 8.06L42.75 8.06Q42.64 8.20 42.56 8.33L42.56 8.33L42.56 8.33Q42.48 8.47 42.42 8.54L42.42 8.54L42.42 13.10L42.42 13.10Q42.42 13.19 42.40 13.32L42.40 13.32L42.40 13.32Q42.37 13.45 42.26 13.56L42.26 13.56L42.26 13.56Q42.16 13.67 41.95 13.75L41.95 13.75L41.95 13.75Q41.74 13.83 41.38 13.83L41.38 13.83L41.38 13.83Q41.02 13.83 40.81 13.74L40.81 13.74L40.81 13.74Q40.60 13.66 40.49 13.54L40.49 13.54L40.49 13.54Q40.38 13.43 40.35 13.30L40.35 13.30L40.35 13.30Q40.33 13.18 40.33 13.10L40.33 13.10L40.33 7.83L40.33 7.83Q40.33 7.63 40.23 7.48L40.23 7.48L40.23 7.48Q40.14 7.33 39.92 7.33L39.92 7.33L39.92 7.33Q39.81 7.33 39.72 7.38L39.72 7.38L39.72 7.38Q39.64 7.42 39.55 7.49L39.55 7.49L39.40 7.32L39.40 7.32Q39.56 7.19 39.75 7.06L39.75 7.06L39.75 7.06Q39.95 6.94 40.17 6.84L40.17 6.84L40.17 6.84Q40.40 6.75 40.66 6.69L40.66 6.69L40.66 6.69Q40.92 6.62 41.21 6.62L41.21 6.62L41.21 6.62Q41.65 6.62 41.90 6.77L41.90 6.77L41.90 6.77Q42.14 6.92 42.26 7.12L42.26 7.12L42.26 7.12Q42.38 7.33 42.40 7.55L42.40 7.55L42.40 7.55Q42.42 7.77 42.42 7.92L42.42 7.92L42.42 7.92Q42.68 7.56 43.00 7.27L43.00 7.27L43.00 7.27Q43.13 7.15 43.29 7.03L43.29 7.03L43.29 7.03Q43.45 6.92 43.63 6.83L43.63 6.83L43.63 6.83Q43.81 6.73 44.01 6.68L44.01 6.68L44.01 6.68Q44.21 6.62 44.43 6.62L44.43 6.62L44.43 6.62Q44.89 6.62 45.25 6.80L45.25 6.80L45.25 6.80Q45.61 6.98 45.86 7.40L45.86 7.40L45.86 7.40Q46.10 7.81 46.23 8.50L46.23 8.50L46.23 8.50Q46.36 9.19 46.36 10.21L46.36 10.21L46.36 10.21Q46.36 11.20 46.18 11.93L46.18 11.93L46.18 11.93Q46.01 12.66 45.72 13.17L45.72 13.17L45.72 13.17Q45.43 13.69 45.07 14.01L45.07 14.01L45.07 14.01Q44.71 14.33 44.34 14.52L44.34 14.52L44.34 14.52Q43.97 14.70 43.63 14.78L43.63 14.78L43.63 14.78Q43.29 14.85 43.05 14.85L43.05 14.85L42.97 14.57L42.97 14.57Q43.18 14.53 43.35 14.42L43.35 14.42L43.35 14.42Q43.52 14.32 43.67 14.12L43.67 14.12L43.67 14.12Q43.81 13.92 43.92 13.62L43.92 13.62L43.92 13.62Q44.03 13.32 44.11 12.86L44.11 12.86L44.11 12.86Q44.19 12.40 44.23 11.77L44.23 11.77L44.23 11.77Q44.26 11.15 44.26 10.32ZM49.97 7.17L49.97 7.17L49.97 7.17Q49.81 7.17 49.67 7.21L49.67 7.21L49.67 7.21Q49.53 7.25 49.42 7.35L49.42 7.35L49.42 7.35Q49.31 7.44 49.25 7.58L49.25 7.58L49.25 7.58Q49.19 7.72 49.19 7.91L49.19 7.91L49.19 7.91Q49.19 8.18 49.39 8.44L49.39 8.44L49.39 8.44Q49.58 8.70 49.87 8.99L49.87 8.99L49.87 8.99Q50.16 9.27 50.50 9.57L50.50 9.57L50.50 9.57Q50.84 9.88 51.13 10.22L51.13 10.22L51.13 10.22Q51.42 10.55 51.61 10.94L51.61 10.94L51.61 10.94Q51.81 11.32 51.81 11.76L51.81 11.76L51.81 11.76Q51.81 12.25 51.64 12.63L51.64 12.63L51.64 12.63Q51.47 13.02 51.16 13.28L51.16 13.28L51.16 13.28Q50.85 13.55 50.41 13.69L50.41 13.69L50.41 13.69Q49.97 13.83 49.43 13.83L49.43 13.83L49.43 13.83Q48.96 13.83 48.58 13.70L48.58 13.70L48.58 13.70Q48.19 13.56 47.90 13.37L47.90 13.37L47.90 13.37Q47.60 13.17 47.39 12.95L47.39 12.95L47.39 12.95Q47.17 12.74 47.06 12.56L47.06 12.56L47.30 12.39L47.30 12.39Q47.39 12.49 47.52 12.61L47.52 12.61L47.52 12.61Q47.66 12.73 47.83 12.83L47.83 12.83L47.83 12.83Q48.00 12.93 48.19 13.00L48.19 13.00L48.19 13.00Q48.38 13.06 48.58 13.06L48.58 13.06L48.58 13.06Q49.07 13.06 49.38 12.83L49.38 12.83L49.38 12.83Q49.70 12.59 49.70 12.13L49.70 12.13L49.70 12.13Q49.70 11.87 49.53 11.59L49.53 11.59L49.53 11.59Q49.36 11.31 49.10 11.02L49.10 11.02L49.10 11.02Q48.84 10.73 48.54 10.41L48.54 10.41L48.54 10.41Q48.23 10.10 47.97 9.76L47.97 9.76L47.97 9.76Q47.71 9.43 47.54 9.07L47.54 9.07L47.54 9.07Q47.37 8.72 47.37 8.33L47.37 8.33L47.37 8.33Q47.37 7.90 47.55 7.58L47.55 7.58L47.55 7.58Q47.72 7.26 48.01 7.05L48.01 7.05L48.01 7.05Q48.30 6.84 48.68 6.73L48.68 6.73L48.68 6.73Q49.05 6.62 49.44 6.62L49.44 6.62L49.44 6.62Q49.90 6.62 50.28 6.71L50.28 6.71L50.28 6.71Q50.65 6.79 50.92 6.96L50.92 6.96L50.92 6.96Q51.19 7.12 51.34 7.38L51.34 7.38L51.34 7.38Q51.49 7.63 51.49 7.96L51.49 7.96L51.49 7.96Q51.49 8.22 51.32 8.42L51.32 8.42L51.32 8.42Q51.15 8.61 50.84 8.61L50.84 8.61L50.84 8.61Q50.54 8.61 50.39 8.48L50.39 8.48L50.39 8.48Q50.24 8.35 50.24 8.13L50.24 8.13L50.24 8.13Q50.24 7.99 50.31 7.91L50.31 7.91L50.31 7.91Q50.38 7.83 50.47 7.78L50.47 7.78L50.47 7.78Q50.56 7.72 50.63 7.69L50.63 7.69L50.63 7.69Q50.70 7.65 50.70 7.59L50.70 7.59L50.70 7.59Q50.70 7.40 50.50 7.28L50.50 7.28L50.50 7.28Q50.29 7.17 49.97 7.17ZM56.22 7.21L55.16 7.21L55.16 12.26L55.16 12.26Q55.16 12.63 55.30 12.77L55.30 12.77L55.30 12.77Q55.43 12.91 55.67 12.91L55.67 12.91L55.67 12.91Q55.86 12.91 56 12.80L56 12.80L56 12.80Q56.14 12.70 56.25 12.57L56.25 12.57L56.25 12.57Q56.37 12.43 56.46 12.24L56.46 12.24L56.67 12.33L56.67 12.33Q56.57 12.55 56.43 12.81L56.43 12.81L56.43 12.81Q56.29 13.07 56.05 13.29L56.05 13.29L56.05 13.29Q55.82 13.51 55.47 13.67L55.47 13.67L55.47 13.67Q55.12 13.82 54.58 13.82L54.58 13.82L54.58 13.82Q54.28 13.82 54.01 13.73L54.01 13.73L54.01 13.73Q53.73 13.64 53.52 13.45L53.52 13.45L53.52 13.45Q53.30 13.25 53.17 12.97L53.17 12.97L53.17 12.97Q53.04 12.68 53.04 12.28L53.04 12.28L53.04 7.21L52.27 7.21L52.27 6.72L52.27 6.72Q52.47 6.72 52.81 6.62L52.81 6.62L52.81 6.62Q53.15 6.52 53.51 6.29L53.51 6.29L53.51 6.29Q53.87 6.06 54.17 5.67L54.17 5.67L54.17 5.67Q54.48 5.28 54.61 4.70L54.61 4.70L55.16 4.70L55.16 6.72L56.27 6.72L56.27 6.72Q56.82 6.72 56.82 6.54L56.82 6.54L56.82 6.54Q56.82 6.47 56.75 6.44L56.75 6.44L56.75 6.44Q56.68 6.42 56.60 6.38L56.60 6.38L56.60 6.38Q56.51 6.34 56.44 6.28L56.44 6.28L56.44 6.28Q56.38 6.21 56.38 6.05L56.38 6.05L56.38 6.05Q56.38 5.86 56.50 5.75L56.50 5.75L56.50 5.75Q56.62 5.64 56.81 5.64L56.81 5.64L56.81 5.64Q56.93 5.64 57.02 5.69L57.02 5.69L57.02 5.69Q57.11 5.74 57.18 5.83L57.18 5.83L57.18 5.83Q57.24 5.91 57.27 6.02L57.27 6.02L57.27 6.02Q57.30 6.13 57.30 6.24L57.30 6.24L57.30 6.24Q57.30 6.69 57.04 6.95L57.04 6.95L57.04 6.95Q56.79 7.21 56.22 7.21L56.22 7.21ZM61.99 8.99L59.29 10.58L59.29 10.58Q59.29 10.80 59.35 11.06L59.35 11.06L59.35 11.06Q59.42 11.31 59.54 11.57L59.54 11.57L59.54 11.57Q59.66 11.83 59.85 12.07L59.85 12.07L59.85 12.07Q60.03 12.30 60.26 12.49L60.26 12.49L60.26 12.49Q60.50 12.67 60.79 12.78L60.79 12.78L60.79 12.78Q61.07 12.89 61.41 12.89L61.41 12.89L61.41 12.89Q61.65 12.89 61.86 12.84L61.86 12.84L61.86 12.84Q62.06 12.78 62.24 12.69L62.24 12.69L62.24 12.69Q62.42 12.59 62.58 12.47L62.58 12.47L62.58 12.47Q62.75 12.34 62.91 12.20L62.91 12.20L63.08 12.36L63.08 12.36Q62.92 12.57 62.68 12.82L62.68 12.82L62.68 12.82Q62.43 13.08 62.08 13.30L62.08 13.30L62.08 13.30Q61.74 13.52 61.27 13.67L61.27 13.67L61.27 13.67Q60.81 13.82 60.21 13.82L60.21 13.82L60.21 13.82Q59.62 13.82 59.05 13.60L59.05 13.60L59.05 13.60Q58.49 13.38 58.05 12.95L58.05 12.95L58.05 12.95Q57.61 12.52 57.35 11.88L57.35 11.88L57.35 11.88Q57.09 11.24 57.09 10.38L57.09 10.38L57.09 10.38Q57.09 9.75 57.24 9.24L57.24 9.24L57.24 9.24Q57.40 8.72 57.67 8.30L57.67 8.30L57.67 8.30Q57.94 7.88 58.30 7.57L58.30 7.57L58.30 7.57Q58.66 7.25 59.06 7.04L59.06 7.04L59.06 7.04Q59.45 6.84 59.87 6.73L59.87 6.73L59.87 6.73Q60.28 6.62 60.66 6.62L60.66 6.62L60.66 6.62Q61.17 6.62 61.54 6.73L61.54 6.73L61.54 6.73Q61.92 6.84 62.17 7.03L62.17 7.03L62.17 7.03Q62.42 7.21 62.54 7.45L62.54 7.45L62.54 7.45Q62.67 7.70 62.67 7.96L62.67 7.96L62.67 7.96Q62.67 8.29 62.48 8.54L62.48 8.54L62.48 8.54Q62.30 8.80 61.99 8.99L61.99 8.99ZM59.22 10.02L60.66 9.19L60.66 9.19Q60.75 9.14 60.81 9.09L60.81 9.09L60.81 9.09Q60.87 9.04 60.90 8.97L60.90 8.97L60.90 8.97Q60.94 8.89 60.95 8.79L60.95 8.79L60.95 8.79Q60.97 8.68 60.97 8.52L60.97 8.52L60.97 8.52Q60.97 8.35 60.93 8.15L60.93 8.15L60.93 8.15Q60.89 7.94 60.81 7.75L60.81 7.75L60.81 7.75Q60.72 7.57 60.58 7.44L60.58 7.44L60.58 7.44Q60.44 7.32 60.25 7.32L60.25 7.32L60.25 7.32Q60.01 7.32 59.83 7.47L59.83 7.47L59.83 7.47Q59.66 7.62 59.54 7.85L59.54 7.85L59.54 7.85Q59.43 8.08 59.37 8.38L59.37 8.38L59.37 8.38Q59.30 8.67 59.27 8.98L59.27 8.98L59.27 8.98Q59.23 9.28 59.23 9.55L59.23 9.55L59.23 9.55Q59.22 9.83 59.22 10.02L59.22 10.02ZM66.19 8.07L66.19 8.07L66.19 8.07Q66.45 7.67 66.74 7.35L66.74 7.35L66.74 7.35Q66.86 7.21 67.01 7.08L67.01 7.08L67.01 7.08Q67.15 6.95 67.30 6.85L67.30 6.85L67.30 6.85Q67.46 6.75 67.62 6.69L67.62 6.69L67.62 6.69Q67.79 6.62 67.95 6.62L67.95 6.62L67.95 6.62Q68.30 6.62 68.50 6.83L68.50 6.83L68.50 6.83Q68.69 7.04 68.69 7.42L68.69 7.42L68.69 7.42Q68.69 7.65 68.66 7.86L68.66 7.86L68.66 7.86Q68.62 8.08 68.51 8.39L68.51 8.39L68.32 8.39L68.32 8.39Q68.28 8.18 68.13 8.04L68.13 8.04L68.13 8.04Q67.98 7.90 67.69 7.90L67.69 7.90L67.69 7.90Q67.48 7.90 67.27 7.97L67.27 7.97L67.27 7.97Q67.07 8.05 66.87 8.17L66.87 8.17L66.87 8.17Q66.68 8.29 66.50 8.42L66.50 8.42L66.50 8.42Q66.33 8.56 66.19 8.68L66.19 8.68L66.19 13.12L66.19 13.12Q66.19 13.21 66.16 13.33L66.16 13.33L66.16 13.33Q66.13 13.45 66.02 13.56L66.02 13.56L66.02 13.56Q65.92 13.67 65.71 13.75L65.71 13.75L65.71 13.75Q65.50 13.83 65.14 13.83L65.14 13.83L65.14 13.83Q64.78 13.83 64.57 13.74L64.57 13.74L64.57 13.74Q64.36 13.66 64.25 13.54L64.25 13.54L64.25 13.54Q64.14 13.43 64.11 13.30L64.11 13.30L64.11 13.30Q64.09 13.18 64.09 13.10L64.09 13.10L64.09 7.83L64.09 7.83Q64.09 7.63 63.99 7.48L63.99 7.48L63.99 7.48Q63.90 7.33 63.68 7.33L63.68 7.33L63.68 7.33Q63.57 7.33 63.49 7.38L63.49 7.38L63.49 7.38Q63.40 7.42 63.31 7.49L63.31 7.49L63.16 7.32L63.16 7.32Q63.32 7.19 63.52 7.06L63.52 7.06L63.52 7.06Q63.71 6.94 63.94 6.84L63.94 6.84L63.94 6.84Q64.16 6.75 64.42 6.69L64.42 6.69L64.42 6.69Q64.68 6.62 64.97 6.62L64.97 6.62L64.97 6.62Q65.26 6.62 65.47 6.70L65.47 6.70L65.47 6.70Q65.68 6.78 65.81 6.91L65.81 6.91L65.81 6.91Q65.95 7.03 66.02 7.19L66.02 7.19L66.02 7.19Q66.10 7.35 66.13 7.51L66.13 7.51L66.13 7.51Q66.17 7.67 66.18 7.82L66.18 7.82L66.18 7.82Q66.19 7.96 66.19 8.07Z"></path></g><!----><g data-v-423bf9ae="" id="f6b9c60d-17f1-4cf8-844d-4fcc28e3663f" transform="matrix(1.0740067958831787,0,0,1.0740067958831787,-17.33743667602539,-8.599530220031738)" stroke="none" fill="white"><path d="M40.153 72.033c0-.958-3.113-.479-7.902-3.113-4.788-2.634-9.099-8.381-10.056-16.522-.958-8.141 2.634-14.846 2.634-14.846s-4.31-1.915-7.662-10.296c-3.352-8.381 4.07-15.803 4.07-15.803s1.916 5.268 4.071 8.62c2.155 3.352 8.141 4.789 11.733 6.226 3.592 1.437 18.198.479 21.075.239 2.877-.239 4.306-2.873 8.377-6.943 4.071-4.071 1.676-11.494 1.676-11.494s5.986 3.832 9.099 11.733c3.113 7.902-4.789 16.521-4.789 16.521s2.873 10.057 2.634 19.874c-.239 9.817-9.578 14.846-11.055 15.325-1.477.479-5.706 1.197-5.228 2.634.479 1.437 6.944 14.845 4.789 16.761-2.155 1.916-23.68.635-25.381-1.197-3.114-3.353 1.915-16.762 1.915-17.719zm-5.508-20.477c5.747 4.549 9.338-2.874 9.338-2.874l-14.127-6.704c0 .001-.957 5.029 4.789 9.578zm31.607-4.05c2.873-3.812 0-7.682 0-7.682l-12.451 7.682c6.465 4.808 9.578 3.811 12.451 0z"></path></g><!----></svg>